<?xml version="1.0" encoding="utf-8" ?>
<svg xmlns="http://www.w3.org/2000/svg" xmlns:xlink="http://www.w3.org/1999/xlink" width="200" height="150">
	<path transform="scale(0.195312 0.293187)" d="M72.4543 454.508C77.4798 444.088 84.6306 434.269 90.6593 424.37L276.441 115.591C287.327 97.1938 305.035 64.6588 318.304 48.7475C324.819 52.519 324.241 165.43 324.224 182.33C329.929 176.369 336.987 172.114 343.772 167.493L460.718 86.6512C477.104 75.219 493.863 64.115 509.653 51.8733L685.895 174.036C689.082 176.207 696.917 180.192 698.928 182.33C700.073 179.06 699.499 120.866 699.745 112.981C700.058 102.984 704.689 53.831 701.909 48.7475C710.777 54.0664 714.513 64.6823 719.539 73.3037L937.526 438.117C939.656 441.69 946.894 450.689 946.797 454.508L866.375 454.508L654.303 454.508C651.601 451.514 643.051 447.012 639.252 444.543C595.641 416.201 553.204 386.068 509.653 357.627C461.905 388.37 413.049 421.899 366.702 454.508L104.986 454.513C94.1604 454.517 83.27 454.865 72.4543 454.508ZM509.653 136.536C477.048 159.541 443.392 181.096 410.308 203.406L228.859 327.899C207.998 342.507 161.04 371.371 144.573 389.152L342.759 389.152C353.582 383.268 363.914 375.252 374.088 368.274L431.46 328.617C457.342 310.54 485.262 293.921 509.653 273.844L511.853 275.92C525.814 286.552 540.336 296.417 554.763 306.398L610.21 344.82C618.263 350.417 668.169 386.803 675.103 388.78C680.149 390.218 716.162 389.142 725.041 389.142L877.81 389.152C872.3 379.529 544.411 157.84 509.653 136.536Z"/>
</svg>
