<?xml version="1.0" encoding="utf-8" ?>
<svg xmlns="http://www.w3.org/2000/svg" xmlns:xlink="http://www.w3.org/1999/xlink" width="200" height="100">
	<path fill="white" transform="scale(0.195312 0.195312)" d="M487.859 332.457C493.022 332.281 498.158 332.382 503.32 332.502C504.223 351.906 503.508 371.7 503.553 391.141C503.583 404.482 504.678 422.583 503.008 435.469C502.381 440.306 501.497 445.057 498.196 448.855Q497.615 449.521 496.973 450.127Q496.33 450.734 495.632 451.275Q494.933 451.816 494.185 452.286Q493.437 452.756 492.647 453.152Q491.857 453.547 491.032 453.864Q490.208 454.18 489.356 454.415Q488.504 454.65 487.634 454.801Q486.763 454.952 485.882 455.017C480.757 455.918 475.232 455.642 470.031 455.736L470.078 444.585C474.554 443.968 481.155 443.957 484.496 440.597C486.544 438.538 487.115 433.823 487.391 430.976C488.449 420.023 487.804 408.472 487.826 397.438L487.859 332.457Z"/>
	<path fill="white" fill-opacity="0.98431373" transform="scale(0.195312 0.195312)" d="M650.43 332.749C655.89 331.679 662.741 332.427 668.372 332.429Q687.49 332.372 706.606 332.551C706.897 332.945 707.106 333.326 707.237 333.805C707.909 336.269 707.919 341.92 706.622 344.13Q696.755 344.006 686.89 344.219C687.137 344.618 687.33 344.965 687.416 345.433C688.382 350.646 687.557 366.79 687.559 373.03C687.566 392.901 688.343 413.121 687.491 432.957C687.444 434.042 687.263 434.788 686.67 435.717C686.941 436.157 687.204 436.634 687.339 437.136C688.043 439.762 688.452 450.676 687.106 452.986L671.086 453.001C671.179 452.853 671.338 452.624 671.404 452.447C672.315 450.019 672.128 357.599 671.647 347.467C671.59 346.269 671.474 345.346 670.907 344.264C664.051 344.15 657.191 344.34 650.332 344.225C650.503 343.968 650.66 343.704 650.768 343.413C651.63 341.087 651.362 335.066 650.43 332.749Z"/>
	<path fill="white" transform="scale(0.195312 0.195312)" d="M523.033 332.249L568.64 332.53C568.928 332.931 569.136 333.318 569.264 333.801C569.923 336.29 569.919 341.943 568.659 344.19L538.878 344.172C539.017 344.493 539.135 344.817 539.231 345.154C539.93 347.615 539.758 379.456 539.466 383.256C539.42 383.859 539.153 384.44 538.876 384.968L563.222 384.979C563.49 385.365 563.716 385.767 563.862 386.217C564.643 388.627 564.416 394.198 563.274 396.483L538.822 396.416C539.057 396.812 539.217 397.086 539.318 397.54C540.084 400.976 539.928 426.004 538.513 428.25C538.763 428.623 538.991 429.021 539.123 429.453C539.911 432.049 539.965 439.194 538.696 441.485C548.815 441.526 559.053 441.098 569.154 441.634C569.433 442.005 569.633 442.359 569.752 442.815C570.366 445.155 570.349 450.897 569.1 452.969L522.538 453.042C523.187 451.985 523.316 451.15 523.357 449.94C523.649 441.402 523.39 432.754 523.392 424.204L523.383 373.496L523.371 346.777C523.366 342.031 523.775 336.925 523.033 332.249Z"/>
	<path fill="white" transform="scale(0.195312 0.195312)" d="M628.094 332.44L643.22 332.352C643.969 335.185 623.088 378.63 620.21 385.262C622.485 391.067 640.876 435.277 640.684 436.733C641.074 437.096 641.388 437.422 641.653 437.889C643.24 440.685 647.768 450.04 647.005 453L631.237 453.008C631.342 452.669 631.406 452.356 631.378 451.997C631.191 449.619 612.327 403.766 609.728 398.243C609.247 397.22 608.758 396.436 607.929 395.654C608.505 399.005 602.34 405.879 601.067 409.413C600.383 411.313 600.372 413.679 600.345 415.689C600.257 422.152 601.758 449.527 599.591 453.015L583.569 453.002C583.758 452.7 583.806 452.651 583.937 452.349C584.426 451.213 584.884 342.247 584.283 334.761C584.226 334.058 583.984 333.391 583.707 332.748C588.688 331.953 594.273 332.453 599.324 332.557C599.366 332.649 599.405 332.743 599.449 332.834C599.753 333.465 600.033 334.057 600.11 334.762C600.63 339.523 600.929 386.729 600.164 389.127Q600.535 388.821 600.87 388.477C603.614 385.703 628.109 335.156 628.094 332.44Z"/>
	<path fill="white" transform="scale(0.195312 0.195312)" d="M732.285 332.749C737.054 331.692 743.441 332.194 748.319 332.552C750.871 339.969 751.969 348.419 753.596 356.107L763.182 400.975L770.577 435.28C771.727 440.619 774.045 447.383 773.878 452.799C769.616 453.737 763.116 452.958 758.639 452.954C759.47 450.185 754.781 425.489 753.248 422.559L747.875 422.494L727.927 422.496C728.054 422.904 728.183 423.364 728.188 423.793C728.219 426.914 722.971 451.935 722.024 453.018L706.895 452.995C707.035 452.819 707.272 452.545 707.389 452.331C709.036 449.303 712.081 430.595 713.078 425.928C719.571 395.536 726.482 365.16 732.409 334.656C732.543 333.962 732.479 333.428 732.285 332.749ZM740.171 357.248C740.322 357.899 740.437 358.575 740.363 359.245C739.951 362.959 730.741 409.96 730.255 410.651C730.179 410.759 730.095 410.861 730.015 410.965C733.916 410.891 737.823 410.764 741.724 410.75L751.083 410.739C752.021 407.456 742.696 364.678 741.212 357.702L740.171 357.248Z"/>
	<path fill="white" transform="scale(0.195312 0.195312)" d="M249.364 332.281Q258.795 332.202 268.226 332.258C279.038 332.285 291.674 331.082 300.145 339.227C307.006 345.824 308.415 355.593 308.485 364.666C308.554 373.632 306.803 382.682 300.171 389.259C291.255 398.1 277.032 396.538 265.572 396.473C265.165 400.938 265.29 405.487 265.261 409.969C265.1 424.307 265.386 438.646 265.232 452.984L249.415 453.037L249.364 332.281ZM265.61 344.022C264.787 357.229 264.569 371.847 265.572 385.018C273.692 384.905 282.433 385.605 289.348 380.618C294.075 373.365 294.139 362.948 292.409 354.663C291.71 351.315 290.229 348.206 287.238 346.355C281.606 342.871 271.999 343.937 265.61 344.022Z"/>
	<path fill="white" transform="scale(0.195312 0.195312)" d="M321.367 332.25C334.118 332.799 348.083 330.752 360.501 334.12C367.008 335.885 372.917 339.365 376.285 345.403C381.272 354.342 381.597 367.515 378.796 377.182C376.36 385.592 372.826 388.46 365.482 392.502C365.469 396.535 368.688 403.757 369.895 408.013C374.14 422.98 377.812 438.171 382.687 452.948L367.119 452.985L360.616 430.513L351.06 395.901Q344.271 395.999 337.482 395.987C336.574 401.912 337.009 408.336 337.082 414.321C337.237 427.139 337.902 440.16 337.224 452.955L321.336 452.972C320.69 445.854 321.09 438.439 321.113 431.293L321.199 392.58L321.046 351.467C321.022 345.992 320.064 337.264 321.367 332.25ZM337.532 344.066C337.165 357.316 336.554 371.167 337.538 384.369C345.48 384.419 353.472 385.149 360.075 379.861C364.863 373.645 365.221 365.735 364.213 358.189C363.665 354.093 362.339 349.979 358.915 347.393C353.2 343.077 344.313 343.894 337.532 344.066Z"/>
	<path fill="white" transform="scale(0.195312 0.195312)" d="M422.176 331.645C430.778 330.782 441.715 331.186 449.013 336.378C455.986 341.338 459.153 349.699 460.455 357.854C462.165 368.57 461.206 380.422 461.254 391.285C461.306 402.843 462.58 415.65 460.684 427.05C459.728 432.805 457.859 438.505 454.387 443.251C449.643 449.735 443.34 452.686 435.618 453.889C426.498 454.598 416.712 454.294 408.962 448.802C401.83 443.748 398.488 435.775 397.088 427.428C395.249 416.464 395.177 367.348 397.112 356.672C398.126 351.077 400.128 345.508 403.49 340.879C407.948 334.742 415.104 332.836 422.176 331.645ZM426.84 344.157C422.567 344.788 418.911 345.237 416.12 348.929C413.818 351.974 413.263 356.294 412.846 360.013C411.591 371.223 412.463 383.235 412.465 394.524C412.467 405.677 411.412 417.778 413.086 428.792C413.713 432.918 415.463 436.237 418.904 438.74C422.316 441.221 427.021 442.004 431.144 441.33C435.365 440.715 438.842 440.143 441.521 436.455C443.675 433.491 444.24 429.99 444.704 426.438C446.201 414.966 445.446 402.814 445.445 391.254C445.445 380.479 446.362 368.78 444.573 358.152C443.863 353.934 442.934 349.461 439.248 346.831C435.89 344.436 430.868 343.681 426.84 344.157Z"/>
	<path fill="white" transform="scale(0.195312 0.195312)" d="M421.638 98.8323C424.592 101.762 424.512 152.661 424.69 160.091C431.142 153.984 439.803 149.179 447.145 144.115L486.813 116.712C494.846 111.153 503.228 105.768 510.828 99.6333C518.95 105.319 597.576 159.533 598.265 160.486L598.377 160.238C598.493 159.984 598.609 159.729 598.71 159.468C599.209 158.175 599.268 156.754 599.327 155.384C599.717 146.237 599.313 137.047 599.63 127.893C599.922 119.484 601.029 110.964 600.91 102.564C600.891 101.199 600.605 100.062 600.029 98.8322C601.053 99.3781 601.93 99.9406 602.669 100.857C608.418 107.978 615.618 122.377 620.776 130.877C638.758 160.51 656.051 190.567 674.139 220.138C682.163 233.257 689.735 246.623 697.696 259.771C702.569 267.819 708.24 275.724 712.598 284.04C713.046 284.893 713.27 285.522 713.17 286.5L675.875 286.498L577.77 286.446C577.515 285.914 517.507 245.796 510.835 241.484C503.496 246.871 495.446 251.614 487.869 256.687Q465.913 271.332 444.272 286.439C428.942 286.957 413.424 286.503 398.074 286.504L308.002 286.506C312.584 277.916 318.367 269.794 323.343 261.407L369.683 184.456L400.437 133.202C407.304 121.643 413.664 109.687 421.638 98.8323ZM510.682 138.949L393.75 218.516C377.335 229.799 354.766 243.008 340.965 256.473C371.736 256.724 402.734 257.328 433.491 256.537C442.258 251.366 450.548 245.173 458.909 239.37Q477.878 226.131 497.054 213.192C501.253 210.337 505.315 206.654 509.594 204.081C510.508 203.531 510.568 203.547 511.575 203.774L511.813 203.989C527.076 214.99 542.615 225.538 558.029 236.319C564.636 240.941 581.077 254.084 587.313 256.073C592.386 257.691 612.113 256.575 619.143 256.554L681.041 256.516C680.384 254.657 678.432 253.371 676.929 252.203C662.366 240.895 646.836 230.673 631.651 220.214Q595.578 195.327 559.221 170.856L526.374 148.865C521.641 145.713 516.335 141.386 511.203 139.078C510.991 138.982 510.89 138.979 510.682 138.949Z"/>
</svg>
