<?xml version="1.0" encoding="utf-8" ?>
<svg xmlns="http://www.w3.org/2000/svg" xmlns:xlink="http://www.w3.org/1999/xlink" width="200" height="100">
	<path fill="white" transform="scale(0.195312 0.195312)" d="M0 0L0 512L1024 512L1024 0L0 0Z"/>
	<path transform="scale(0.195312 0.195312)" d="M307.68 286.775C310.016 281.932 313.34 277.367 316.142 272.766L402.502 129.232C407.562 120.68 415.794 105.556 421.962 98.16C424.99 99.9131 424.721 152.399 424.714 160.255C427.365 157.484 430.646 155.506 433.8 153.358L488.162 115.779C495.779 110.465 503.569 105.303 510.909 99.613L592.834 156.4C594.315 157.409 597.958 159.261 598.892 160.255C599.425 158.735 599.158 131.684 599.272 128.019C599.418 123.371 601.57 100.523 600.278 98.16C604.4 100.632 606.137 105.567 608.473 109.575L709.803 279.156C710.793 280.817 714.158 285 714.113 286.775L676.729 286.775L578.149 286.775C576.893 285.383 572.918 283.291 571.152 282.143C550.88 268.968 531.153 254.961 510.909 241.741C488.714 256.031 466.003 271.617 444.459 286.775L322.802 286.778C317.77 286.779 312.708 286.941 307.68 286.775ZM510.909 138.968C495.753 149.662 480.108 159.681 464.729 170.052L380.384 227.922C370.687 234.712 348.858 248.129 341.204 256.395L433.329 256.395C438.36 253.66 443.163 249.934 447.892 246.69L474.561 228.256C486.593 219.853 499.571 212.127 510.909 202.795L511.932 203.76C518.421 208.702 525.172 213.288 531.878 217.927L557.652 235.787C561.396 238.389 584.594 255.303 587.817 256.222C590.163 256.89 606.903 256.39 611.031 256.39L682.044 256.395C679.483 251.922 527.066 148.871 510.909 138.968Z"/>
	<path transform="scale(0.195312 0.195312)" d="M249.066 453.159L249.066 332.047L279.12 332.047C286.397 332.047 292.203 333.367 296.539 336.009C300.876 338.651 304.04 342.463 306.034 347.447C308.028 352.431 309.024 358.462 309.024 365.539C309.024 371.919 307.903 377.451 305.66 382.136C303.417 386.821 300.103 390.435 295.717 392.977C291.331 395.519 285.849 396.789 279.27 396.789L265.962 396.789L265.962 453.159L249.066 453.159ZM265.962 384.678L273.737 384.678C278.622 384.678 282.459 384.13 285.251 383.033C288.042 381.937 290.035 380.018 291.231 377.277C292.428 374.536 293.026 370.673 293.026 365.689C293.026 359.907 292.602 355.472 291.755 352.382C290.907 349.291 289.138 347.148 286.447 345.952C283.755 344.756 279.569 344.158 273.887 344.158L265.962 344.158L265.962 384.678ZM320.837 453.159L320.837 332.047L345.209 332.047C353.283 332.047 359.962 333.118 365.245 335.261C370.528 337.405 374.44 340.843 376.982 345.578C379.524 350.313 380.795 356.518 380.795 364.194C380.795 368.879 380.296 373.14 379.3 376.978C378.303 380.816 376.708 384.055 374.515 386.697C372.322 389.338 369.431 391.257 365.843 392.453L383.038 453.159L366.74 453.159L350.891 396.341L337.733 396.341L337.733 453.159L320.837 453.159ZM337.733 384.23L344.162 384.23C348.947 384.23 352.834 383.632 355.825 382.435C358.815 381.239 361.008 379.196 362.404 376.305C363.799 373.414 364.497 369.377 364.497 364.194C364.497 357.116 363.201 352.008 360.609 348.868C358.018 345.728 352.884 344.158 345.209 344.158L337.733 344.158L337.733 384.23ZM428.941 454.505C420.766 454.505 414.238 452.91 409.353 449.72C404.469 446.53 400.98 441.97 398.887 436.039C396.794 430.108 395.747 423.155 395.747 415.181L395.747 369.278C395.747 361.303 396.819 354.45 398.962 348.718C401.104 342.987 404.594 338.601 409.428 335.56C414.262 332.52 420.766 331 428.941 331C437.115 331 443.594 332.545 448.379 335.635C453.163 338.725 456.628 343.111 458.77 348.793C460.913 354.475 461.985 361.303 461.985 369.278L461.985 415.33C461.985 423.205 460.913 430.083 458.77 435.964C456.628 441.845 453.163 446.406 448.379 449.645C443.594 452.885 437.115 454.505 428.941 454.505ZM428.941 441.197C433.426 441.197 436.816 440.275 439.108 438.431C441.4 436.587 442.946 433.995 443.743 430.656C444.54 427.317 444.94 423.404 444.94 418.919L444.94 365.839C444.94 361.353 444.54 357.49 443.743 354.251C442.946 351.011 441.4 348.519 439.108 346.775C436.816 345.03 433.426 344.158 428.941 344.158C424.455 344.158 421.042 345.03 418.699 346.775C416.356 348.519 414.786 351.011 413.989 354.251C413.192 357.49 412.792 361.353 412.792 365.839L412.792 418.919C412.792 423.404 413.192 427.317 413.989 430.656C414.786 433.995 416.356 436.587 418.699 438.431C421.042 440.275 424.455 441.197 428.941 441.197ZM469.76 456L469.76 443.889C473.449 443.889 476.439 443.64 478.731 443.141C481.024 442.643 482.794 441.746 484.039 440.45C485.285 439.154 486.158 437.285 486.656 434.843C487.154 432.401 487.404 429.285 487.404 425.498L487.404 332.047L504.15 332.047L504.15 425.797C504.15 432.774 503.402 438.481 501.907 442.917C500.412 447.353 497.77 450.642 493.983 452.785C490.195 454.928 484.812 456 477.834 456L469.76 456ZM523.139 453.159L523.139 332.047L570.089 332.047L570.089 344.606L540.035 344.606L540.035 384.678L564.407 384.678L564.407 396.64L540.035 396.64L540.035 441.048L570.388 441.048L570.388 453.159L523.139 453.159ZM583.995 453.159L583.995 332.047L600.891 332.047L600.891 389.164L628.702 332.047L644.401 332.047L620.478 385.426L648.289 453.159L631.841 453.159L608.666 396.341L600.891 410.396L600.891 453.159L583.995 453.159ZM671.315 453.159L671.315 344.606L650.831 344.606L650.831 332.047L708.097 332.047L708.097 344.606L688.211 344.606L688.211 453.159L671.315 453.159ZM707.051 453.159L732.769 332.047L749.066 332.047L774.934 453.159L758.935 453.159L753.402 422.657L728.731 422.657L722.9 453.159L707.051 453.159ZM730.974 410.545L751.16 410.545L740.992 355.97L730.974 410.545Z"/>
</svg>
